<?xml version="1.0" encoding="utf-8"?>
<svg xmlns="http://www.w3.org/2000/svg" viewBox="0 0 100 100" width="100" height="100" role="img">
<title>Tropisches Müsli mit Ananas und Kokos</title>
<circle cx="50" cy="50" r="43" fill="#fff4ae"/><path d="M18 54h64l-6 24H24z" fill="#e79b63" stroke="#245b35" stroke-width="3"/><ellipse cx="50" cy="54" rx="32" ry="12" fill="#f7d66c"/><path d="M48 45l-7-13 9 5 2-14 5 14 8-6-7 14z" fill="#5c9b5a"/><ellipse cx="52" cy="47" rx="9" ry="13" fill="#f6bf3e" stroke="#d58134" stroke-width="2"/><path d="M47 40l10 13M57 40L47 53" stroke="#d58134" stroke-width="2"/><path d="M28 50q7-9 14 0q-7 6-14 0M62 50q6-8 12 0q-6 6-12 0" fill="#fffdf0" stroke="#d9cbb0" stroke-width="2"/></svg>
